<svg version="1.1" id="Layer_1" xmlns="http://www.w3.org/2000/svg" xmlns:xlink="http://www.w3.org/1999/xlink" x="0px" y="0px"
	 width="100%" viewBox="0 0 1024 1024" enable-background="new 0 0 1024 1024" xml:space="preserve">
<path fill="#AF9058" opacity="1.000000" stroke="none" 
	d="
M424.507996,837.605408 
	C344.433319,802.474915 290.981445,743.857300 265.557007,660.363159 
	C254.866714,625.256165 251.747391,589.282043 255.425507,552.714111 
	C260.631134,500.959473 277.206116,452.724548 300.749146,406.719849 
	C327.854553,353.754089 361.931000,305.626587 402.278717,261.890930 
	C428.933716,232.997833 458.018433,206.930954 490.489777,184.721558 
	C496.536102,180.585999 502.857086,176.852661 508.915100,172.733322 
	C511.797760,170.773224 514.141968,170.921661 517.105530,172.716476 
	C538.250427,185.522552 558.136353,200.072525 576.814758,216.214035 
	C629.640808,261.865356 672.736389,315.615021 708.111084,375.625916 
	C734.568848,420.509857 755.276550,467.790161 765.599121,519.160889 
	C771.598938,549.019043 773.680176,579.076294 770.514709,609.500061 
	C765.645996,656.293945 750.938721,699.543884 723.991638,738.176758 
	C687.332642,790.733337 638.896362,827.776245 577.038574,846.001404 
	C548.023438,854.550171 518.342590,857.160889 488.092163,853.597900 
	C466.264984,851.026978 445.211975,845.936340 424.507996,837.605408 
M400.830017,335.421051 
	C409.010590,316.022797 419.281128,297.645660 429.604675,278.553589 
	C426.284271,278.975433 425.120300,280.759125 423.808014,282.164398 
	C412.430603,294.348053 401.480469,306.936584 391.292084,320.105927 
	C355.741638,366.057800 325.533508,415.114532 305.176849,469.853119 
	C292.728088,503.327515 284.608337,537.737061 283.518707,573.466309 
	C282.493225,607.091125 288.298767,639.760376 300.142853,671.313782 
	C310.569366,699.090698 325.837219,723.933533 345.294495,746.256836 
	C347.369720,748.637756 349.431458,750.685364 353.121124,750.898376 
	C368.119629,751.764343 383.053131,751.557800 397.992065,749.836914 
	C436.053925,745.452454 471.089142,732.560364 503.360260,712.156311 
	C540.027649,688.972778 569.647522,658.731567 592.224609,621.674805 
	C614.158081,585.674500 627.485901,546.713867 630.516602,504.624451 
	C633.548767,462.513397 626.748291,421.712158 612.267273,382.074219 
	C594.309753,332.920074 569.205505,287.595398 539.549133,244.654999 
	C532.161133,233.957687 524.541626,223.433472 516.539795,213.182953 
	C514.173340,210.151459 512.073364,209.289215 509.616180,212.962860 
	C508.877441,214.067276 507.960571,215.050934 507.156158,216.113266 
	C492.362946,235.650116 478.429962,255.763046 465.609009,276.667877 
	C439.802948,318.745178 417.974548,362.615417 405.042023,410.474091 
	C392.655884,456.310608 390.884125,502.448700 402.977844,548.631531 
	C418.291595,607.111206 449.878662,655.187561 496.661896,693.371826 
	C498.779083,695.099854 501.393311,696.438049 502.489960,699.475708 
	C498.063080,703.294189 493.088043,706.025513 488.151886,708.711487 
	C474.662140,716.052063 478.755249,717.061279 466.759979,706.397644 
	C423.104553,667.588257 392.782776,620.236450 376.570465,563.958862 
	C365.388824,525.144226 362.835052,485.657196 367.999451,445.776703 
	C372.948883,407.556335 384.472961,371.124664 400.830017,335.421051 
M713.715149,698.268250 
	C736.695801,653.928345 745.673462,606.757141 741.479065,557.146729 
	C738.582947,522.892395 729.554810,490.036438 716.533813,458.294495 
	C689.271301,391.834991 649.475830,333.487244 601.080627,280.756622 
	C599.568542,279.109100 598.230652,277.145935 595.839600,276.199249 
	C595.737854,278.345825 596.996338,279.769470 597.852173,281.298401 
	C611.699341,306.035248 624.205811,331.386780 634.544312,357.830933 
	C656.704346,414.512512 666.958069,472.532593 656.496582,533.330139 
	C646.154724,593.431885 619.433167,645.136841 577.557922,689.107849 
	C548.601501,719.513550 515.008179,743.400940 475.965332,759.351379 
	C449.748260,770.062073 422.682343,777.177673 394.392029,779.431030 
	C391.539429,779.658203 388.529480,779.654541 385.884674,781.343567 
	C402.752350,802.684814 471.048889,826.204529 516.217102,825.573853 
	C562.244995,824.931274 603.230591,809.318726 640.083191,781.406677 
	C599.745361,776.965759 561.222717,767.336548 524.692017,747.230591 
	C533.865234,740.559204 541.790894,734.797607 549.713318,729.031372 
	C551.543030,727.699707 553.175964,728.668701 554.858826,729.411072 
	C592.211487,745.889465 631.167908,753.535461 672.044556,750.895813 
	C675.340393,750.683044 677.633667,749.629578 679.752869,747.195068 
	C692.705750,732.314392 704.429565,716.592651 713.715149,698.268250 
z"/>
</svg>