<?xml version="1.0" standalone="no"?>
<!DOCTYPE svg PUBLIC "-//W3C//DTD SVG 20010904//EN"
 "http://www.w3.org/TR/2001/REC-SVG-20010904/DTD/svg10.dtd">
<svg version="1.0" xmlns="http://www.w3.org/2000/svg"
 width="512.000000pt" height="512.000000pt" viewBox="0 0 512.000000 512.000000"
 preserveAspectRatio="xMidYMid meet">
<g transform="translate(0.000000,512.000000) scale(0.100000,-0.100000)"
fill="#AF9058" stroke="none">
<path d="M1178 3930 c0 -3 -2 -72 -2 -155 l-1 -150 -144 -5 -144 -5 -1 -902
-1 -903 190 6 c376 12 643 -56 892 -228 98 -68 246 -209 304 -289 65 -92 84
-109 119 -109 47 0 64 13 115 90 26 38 50 70 54 70 5 0 29 -31 55 -70 51 -76
69 -90 113 -90 36 0 52 12 93 73 53 80 214 240 307 306 154 110 316 181 506
223 91 20 130 23 353 23 l252 -1 -2 46 c-1 25 -3 431 -4 903 l-2 857 -145 0
-145 0 0 157 0 156 -122 -7 c-222 -12 -498 -80 -695 -171 -174 -80 -356 -229
-450 -368 -82 -122 -80 -111 -40 -223 20 -55 36 -92 36 -83 1 28 88 193 129
245 131 165 308 284 549 368 110 38 315 83 403 88 l55 3 3 -790 2 -791 -113
-12 c-289 -30 -586 -147 -820 -320 -51 -38 -143 -119 -205 -180 l-112 -110
-108 107 c-297 296 -629 458 -1032 505 l-105 12 0 789 0 790 55 -3 c79 -5 280
-49 385 -83 380 -127 606 -336 707 -655 22 -67 22 -84 26 -685 l3 -617 32 -37
32 -37 38 38 37 37 0 577 c0 621 -3 668 -53 815 -130 380 -472 643 -974 749
-135 28 -421 60 -425 46z m2920 -1216 l-3 -759 -80 3 c-98 4 -314 -14 -409
-34 -185 -39 -375 -118 -522 -218 -105 -72 -229 -182 -296 -263 -34 -40 -62
-73 -63 -73 -2 0 -20 22 -40 50 -28 38 -34 53 -26 67 14 27 198 203 261 250
259 194 571 312 872 329 57 3 113 7 126 10 l22 4 0 700 0 699 73 3 c39 2 75 0
80 -3 4 -3 6 -347 5 -765z m-2918 63 l0 -704 121 -6 c398 -22 755 -179 1047
-461 35 -34 77 -78 94 -99 l30 -37 -38 -52 -38 -51 -35 44 c-83 103 -218 225
-335 303 -250 166 -567 252 -906 245 l-95 -2 -3 762 -2 761 80 0 80 0 0 -703z"/>
</g>
</svg>
