<svg version="1.1" id="Layer_1" xmlns="http://www.w3.org/2000/svg" xmlns:xlink="http://www.w3.org/1999/xlink" x="0px" y="0px"
	 width="100%" viewBox="0 0 1024 672" enable-background="new 0 0 1024 672" xml:space="preserve">
<path fill="#AF9058" opacity="1.000000" stroke="none" 
	d="
M621.239380,512.786133 
	C586.776733,485.696777 552.523254,458.916382 518.494812,431.852936 
	C514.153992,428.400726 511.562744,428.901123 507.519653,432.131805 
	C482.018066,452.509186 456.294525,472.608795 430.649811,492.807098 
	C413.901520,505.998383 397.169739,519.210632 380.407043,532.383484 
	C378.908691,533.560974 377.638031,535.303772 374.134186,534.946960 
	C418.855774,403.752472 467.362274,274.279633 513.204285,143.591110 
	C559.544373,274.285217 607.329468,404.074524 652.298035,534.856506 
	C651.772888,535.222595 651.247803,535.588684 650.722717,535.954773 
	C640.987732,528.305786 631.252808,520.656738 621.239380,512.786133 
M521.582153,244.808197 
	C518.993835,237.588379 516.405457,230.368576 513.817078,223.148758 
	C513.433960,223.226044 513.050842,223.303345 512.667725,223.380646 
	C483.906342,303.348297 455.144958,383.315948 426.383545,463.283600 
	C428.555450,463.003662 429.662750,462.276978 430.698181,461.459320 
	C456.452332,441.120789 482.264740,420.854889 507.878662,400.341187 
	C511.910706,397.112000 514.512024,397.205414 518.530396,400.447479 
	C542.254700,419.588501 566.192627,438.465698 590.144897,457.322113 
	C593.005493,459.574097 595.588318,462.413025 600.259949,464.060730 
	C573.876648,390.593414 547.835754,318.079590 521.582153,244.808197 
z"/>
</svg>
